<svg xmlns="http://www.w3.org/2000/svg" width="32" height="32" viewBox="0 0 32 32">
  <defs>
    <linearGradient id="g" x1="0" y1="0" x2="1" y2="1">
      <stop offset="0%" stop-color="#6366f1"/>
      <stop offset="100%" stop-color="#8b5cf6"/>
    </linearGradient>
  </defs>
  <rect width="32" height="32" rx="7" fill="url(#g)"/>
  <!-- Rocket body -->
  <path d="M16 5c-2.5 4-4 8-4 12 0 2 .8 3.5 2 4.5L16 24l2-2.5c1.2-1 2-2.5 2-4.5 0-4-1.5-8-4-12z" fill="white" opacity="0.95"/>
  <!-- Rocket window -->
  <circle cx="16" cy="14" r="2" fill="#6366f1"/>
  <!-- Left fin -->
  <path d="M12 17c-2 1-3 3-3.5 4.5L12 20z" fill="white" opacity="0.7"/>
  <!-- Right fin -->
  <path d="M20 17c2 1 3 3 3.5 4.5L20 20z" fill="white" opacity="0.7"/>
  <!-- Flame -->
  <path d="M14.5 24c.5 1.5 1 3 1.5 3.5.5-.5 1-2 1.5-3.5-.5.3-1 .5-1.5.5s-1-.2-1.5-.5z" fill="#fbbf24"/>
  <path d="M15 24c.3 1 .6 2 1 2.5.4-.5.7-1.5 1-2.5-.3.2-.6.3-1 .3s-.7-.1-1-.3z" fill="#f97316"/>
</svg>
